<svg width="1134" height="590" viewBox="0 0 1134 590" fill="none" xmlns="http://www.w3.org/2000/svg">
<path d="M280 90H305C324.33 90 340 105.67 340 125V477H315C295.67 477 280 461.33 280 442V90Z" fill="white"/>
<path d="M565 343H625V477H600C580.67 477 565 461.33 565 442V343Z" fill="white"/>
<path d="M565 90H590C609.33 90 625 105.67 625 125V224H565V90Z" fill="white"/>
<path d="M435.858 313.004C403.046 312.998 376.452 286.393 376.458 253.581C376.458 253.256 376.722 252.993 377.047 252.993L859.612 253.085L859.6 313.085L435.858 313.004Z" fill="white"/>
<path d="M855.027 253L870.027 253.002C894.88 253.005 915.025 273.154 915.022 298.007L915.002 456.817C915.001 467.862 906.046 476.816 895 476.814L875 476.812C863.954 476.811 855.001 467.855 855.002 456.809L855.027 253Z" fill="white"/>
<path d="M855 325C855.357 320.8 854.429 313 845 313V307H860V325H855Z" fill="white"/>
</svg>
